<mxfile host="Electron" modified="2025-06-13T17:18:39.236Z" agent="Mozilla/5.0 (Macintosh; Intel Mac OS X 10_15_7) AppleWebKit/537.36 (KHTML, like Gecko) draw.io/24.6.1 Chrome/124.0.6367.207 Electron/30.0.6 Safari/537.36" etag="ppAd1NntYZUabGJmzZXS" version="24.6.1" type="device">
  <diagram id="gYPfCoxHJxYhsLLPmdHW" name="Страница — 1">
    <mxGraphModel dx="2261" dy="907" grid="1" gridSize="10" guides="1" tooltips="1" connect="1" arrows="1" fold="1" page="1" pageScale="1" pageWidth="827" pageHeight="1169" math="0" shadow="0">
      <root>
        <mxCell id="0" />
        <mxCell id="1" parent="0" />
        <mxCell id="XdAdolPLMLlIhe34wV45-2" style="edgeStyle=orthogonalEdgeStyle;rounded=0;orthogonalLoop=1;jettySize=auto;html=1;entryX=0;entryY=0.5;entryDx=0;entryDy=0;" parent="1" source="J59c7SakDARuH53kBHMp-1" target="J59c7SakDARuH53kBHMp-3" edge="1">
          <mxGeometry relative="1" as="geometry" />
        </mxCell>
        <mxCell id="J59c7SakDARuH53kBHMp-1" value="Пациент" style="html=1;dashed=0;whiteSpace=wrap;rounded=1;fillColor=#dae8fc;strokeColor=#6c8ebf;" parent="1" vertex="1">
          <mxGeometry x="-60" y="295" width="100" height="50" as="geometry" />
        </mxCell>
        <mxCell id="J59c7SakDARuH53kBHMp-2" value="Оплата" style="ellipse;whiteSpace=wrap;html=1;aspect=fixed;fillColor=#dae8fc;strokeColor=#6c8ebf;" parent="1" vertex="1">
          <mxGeometry x="390" y="280" width="80" height="80" as="geometry" />
        </mxCell>
        <mxCell id="XdAdolPLMLlIhe34wV45-3" style="edgeStyle=orthogonalEdgeStyle;rounded=0;orthogonalLoop=1;jettySize=auto;html=1;entryX=0;entryY=0.5;entryDx=0;entryDy=0;" parent="1" source="J59c7SakDARuH53kBHMp-3" target="XdAdolPLMLlIhe34wV45-1" edge="1">
          <mxGeometry relative="1" as="geometry" />
        </mxCell>
        <mxCell id="J59c7SakDARuH53kBHMp-3" value="Оплата приема" style="ellipse;whiteSpace=wrap;html=1;aspect=fixed;fillColor=#b1ddf0;strokeColor=#10739e;" parent="1" vertex="1">
          <mxGeometry x="80" y="260" width="120" height="120" as="geometry" />
        </mxCell>
        <mxCell id="lwImwlI-NLwB6QqXv_lW-2" style="edgeStyle=orthogonalEdgeStyle;rounded=0;orthogonalLoop=1;jettySize=auto;html=1;" parent="1" source="XdAdolPLMLlIhe34wV45-1" target="J59c7SakDARuH53kBHMp-2" edge="1">
          <mxGeometry relative="1" as="geometry" />
        </mxCell>
        <mxCell id="lwImwlI-NLwB6QqXv_lW-5" style="edgeStyle=orthogonalEdgeStyle;rounded=0;orthogonalLoop=1;jettySize=auto;html=1;entryX=0;entryY=0.5;entryDx=0;entryDy=0;" parent="1" source="XdAdolPLMLlIhe34wV45-1" target="lwImwlI-NLwB6QqXv_lW-4" edge="1">
          <mxGeometry relative="1" as="geometry" />
        </mxCell>
        <mxCell id="XdAdolPLMLlIhe34wV45-1" value="Кассир" style="html=1;dashed=0;whiteSpace=wrap;rounded=1;fillColor=#dae8fc;strokeColor=#6c8ebf;" parent="1" vertex="1">
          <mxGeometry x="240" y="295" width="100" height="50" as="geometry" />
        </mxCell>
        <mxCell id="lwImwlI-NLwB6QqXv_lW-7" style="edgeStyle=orthogonalEdgeStyle;rounded=0;orthogonalLoop=1;jettySize=auto;html=1;entryX=1;entryY=0.5;entryDx=0;entryDy=0;exitX=0.5;exitY=1;exitDx=0;exitDy=0;exitPerimeter=0;" parent="1" source="lwImwlI-NLwB6QqXv_lW-3" target="lwImwlI-NLwB6QqXv_lW-4" edge="1">
          <mxGeometry relative="1" as="geometry" />
        </mxCell>
        <mxCell id="lwImwlI-NLwB6QqXv_lW-3" value="1С Бухгал-терия" style="shape=cylinder3;whiteSpace=wrap;html=1;boundedLbl=1;backgroundOutline=1;size=15;fillColor=#dae8fc;strokeColor=#6c8ebf;" parent="1" vertex="1">
          <mxGeometry x="520" y="271" width="60" height="80" as="geometry" />
        </mxCell>
        <mxCell id="lwImwlI-NLwB6QqXv_lW-4" value="Выдача чека" style="ellipse;whiteSpace=wrap;html=1;aspect=fixed;fillColor=#dae8fc;strokeColor=#6c8ebf;" parent="1" vertex="1">
          <mxGeometry x="390" y="390" width="80" height="80" as="geometry" />
        </mxCell>
        <mxCell id="lwImwlI-NLwB6QqXv_lW-6" style="edgeStyle=orthogonalEdgeStyle;rounded=0;orthogonalLoop=1;jettySize=auto;html=1;entryX=0.033;entryY=0.614;entryDx=0;entryDy=0;entryPerimeter=0;" parent="1" source="J59c7SakDARuH53kBHMp-2" target="lwImwlI-NLwB6QqXv_lW-3" edge="1">
          <mxGeometry relative="1" as="geometry" />
        </mxCell>
        <mxCell id="lwImwlI-NLwB6QqXv_lW-10" style="edgeStyle=orthogonalEdgeStyle;rounded=0;orthogonalLoop=1;jettySize=auto;html=1;entryX=0;entryY=0.5;entryDx=0;entryDy=0;" parent="1" source="lwImwlI-NLwB6QqXv_lW-8" target="lwImwlI-NLwB6QqXv_lW-9" edge="1">
          <mxGeometry relative="1" as="geometry" />
        </mxCell>
        <mxCell id="lwImwlI-NLwB6QqXv_lW-8" value="Бухгалтер" style="html=1;dashed=0;whiteSpace=wrap;rounded=1;fillColor=#dae8fc;strokeColor=#6c8ebf;" parent="1" vertex="1">
          <mxGeometry x="-60" y="505" width="100" height="50" as="geometry" />
        </mxCell>
        <mxCell id="lwImwlI-NLwB6QqXv_lW-13" style="edgeStyle=orthogonalEdgeStyle;rounded=0;orthogonalLoop=1;jettySize=auto;html=1;entryX=0;entryY=0.5;entryDx=0;entryDy=0;" parent="1" source="lwImwlI-NLwB6QqXv_lW-9" target="lwImwlI-NLwB6QqXv_lW-11" edge="1">
          <mxGeometry relative="1" as="geometry" />
        </mxCell>
        <mxCell id="lwImwlI-NLwB6QqXv_lW-15" style="edgeStyle=orthogonalEdgeStyle;rounded=0;orthogonalLoop=1;jettySize=auto;html=1;entryX=0;entryY=0.5;entryDx=0;entryDy=0;" parent="1" source="lwImwlI-NLwB6QqXv_lW-9" target="lwImwlI-NLwB6QqXv_lW-14" edge="1">
          <mxGeometry relative="1" as="geometry" />
        </mxCell>
        <mxCell id="lwImwlI-NLwB6QqXv_lW-9" value="Выдача зарплаты" style="ellipse;whiteSpace=wrap;html=1;aspect=fixed;fillColor=#b1ddf0;strokeColor=#10739e;" parent="1" vertex="1">
          <mxGeometry x="80" y="470" width="120" height="120" as="geometry" />
        </mxCell>
        <mxCell id="lwImwlI-NLwB6QqXv_lW-11" value="Подсчет зарплаты" style="ellipse;whiteSpace=wrap;html=1;aspect=fixed;fillColor=#dae8fc;strokeColor=#6c8ebf;" parent="1" vertex="1">
          <mxGeometry x="240" y="490" width="80" height="80" as="geometry" />
        </mxCell>
        <mxCell id="lwImwlI-NLwB6QqXv_lW-12" style="edgeStyle=orthogonalEdgeStyle;rounded=0;orthogonalLoop=1;jettySize=auto;html=1;entryX=1;entryY=0.5;entryDx=0;entryDy=0;entryPerimeter=0;" parent="1" source="lwImwlI-NLwB6QqXv_lW-11" target="lwImwlI-NLwB6QqXv_lW-3" edge="1">
          <mxGeometry relative="1" as="geometry" />
        </mxCell>
        <mxCell id="77NNBcB4CsdvaM4dmmhu-2" style="edgeStyle=orthogonalEdgeStyle;rounded=0;orthogonalLoop=1;jettySize=auto;html=1;entryX=0;entryY=0.5;entryDx=0;entryDy=0;" parent="1" source="lwImwlI-NLwB6QqXv_lW-14" target="77NNBcB4CsdvaM4dmmhu-1" edge="1">
          <mxGeometry relative="1" as="geometry" />
        </mxCell>
        <mxCell id="lwImwlI-NLwB6QqXv_lW-14" value="Перевод через банк" style="ellipse;whiteSpace=wrap;html=1;aspect=fixed;fillColor=#dae8fc;strokeColor=#6c8ebf;" parent="1" vertex="1">
          <mxGeometry x="240" y="600" width="80" height="80" as="geometry" />
        </mxCell>
        <mxCell id="77NNBcB4CsdvaM4dmmhu-4" style="edgeStyle=orthogonalEdgeStyle;rounded=0;orthogonalLoop=1;jettySize=auto;html=1;entryX=0;entryY=0.5;entryDx=0;entryDy=0;" parent="1" source="lwImwlI-NLwB6QqXv_lW-16" target="lwImwlI-NLwB6QqXv_lW-18" edge="1">
          <mxGeometry relative="1" as="geometry" />
        </mxCell>
        <mxCell id="lwImwlI-NLwB6QqXv_lW-16" value="Поступление на карту" style="ellipse;whiteSpace=wrap;html=1;aspect=fixed;fillColor=#bac8d3;strokeColor=#23445d;" parent="1" vertex="1">
          <mxGeometry x="510" y="600" width="80" height="80" as="geometry" />
        </mxCell>
        <mxCell id="lwImwlI-NLwB6QqXv_lW-18" value="Врач" style="html=1;dashed=0;whiteSpace=wrap;rounded=1;fillColor=#dae8fc;strokeColor=#6c8ebf;" parent="1" vertex="1">
          <mxGeometry x="640" y="615" width="100" height="50" as="geometry" />
        </mxCell>
        <mxCell id="77NNBcB4CsdvaM4dmmhu-3" style="edgeStyle=orthogonalEdgeStyle;rounded=0;orthogonalLoop=1;jettySize=auto;html=1;entryX=0;entryY=0.5;entryDx=0;entryDy=0;" parent="1" source="77NNBcB4CsdvaM4dmmhu-1" target="lwImwlI-NLwB6QqXv_lW-16" edge="1">
          <mxGeometry relative="1" as="geometry" />
        </mxCell>
        <mxCell id="77NNBcB4CsdvaM4dmmhu-1" value="Банк" style="html=1;dashed=0;whiteSpace=wrap;rounded=1;fillColor=#bac8d3;strokeColor=#23445d;" parent="1" vertex="1">
          <mxGeometry x="364" y="615" width="100" height="50" as="geometry" />
        </mxCell>
        <mxCell id="Haz4xUDdIikE2gERzMqo-1" value="RBAC" style="text;html=1;align=center;verticalAlign=middle;whiteSpace=wrap;rounded=0;" vertex="1" parent="1">
          <mxGeometry x="30" y="470" width="60" height="30" as="geometry" />
        </mxCell>
        <mxCell id="Haz4xUDdIikE2gERzMqo-2" value="RBAC" style="text;html=1;align=center;verticalAlign=middle;whiteSpace=wrap;rounded=0;" vertex="1" parent="1">
          <mxGeometry x="300" y="265" width="60" height="30" as="geometry" />
        </mxCell>
        <mxCell id="Haz4xUDdIikE2gERzMqo-3" value="TLS" style="text;html=1;align=center;verticalAlign=middle;whiteSpace=wrap;rounded=0;" vertex="1" parent="1">
          <mxGeometry x="460" y="290" width="60" height="30" as="geometry" />
        </mxCell>
        <mxCell id="Haz4xUDdIikE2gERzMqo-4" value="TLS" style="text;html=1;align=center;verticalAlign=middle;whiteSpace=wrap;rounded=0;" vertex="1" parent="1">
          <mxGeometry x="600" y="315" width="60" height="30" as="geometry" />
        </mxCell>
        <mxCell id="Haz4xUDdIikE2gERzMqo-7" value="TLS" style="text;html=1;align=center;verticalAlign=middle;whiteSpace=wrap;rounded=0;" vertex="1" parent="1">
          <mxGeometry x="310" y="610" width="60" height="30" as="geometry" />
        </mxCell>
        <mxCell id="Haz4xUDdIikE2gERzMqo-8" value="Проверка сертификатов" style="text;html=1;align=center;verticalAlign=middle;whiteSpace=wrap;rounded=0;" vertex="1" parent="1">
          <mxGeometry x="304" y="670" width="60" height="30" as="geometry" />
        </mxCell>
      </root>
    </mxGraphModel>
  </diagram>
</mxfile>
